<svg width="315" height="30" viewBox="0 0 315 30" fill="none" xmlns="http://www.w3.org/2000/svg">
<path d="M36.4103 0.201784C36.2953 0.288258 36.2091 5.62076 36.2091 12.0198V23.636H22.5588H8.93733L8.85112 20.9553L8.7649 18.3035L4.39682 18.217L0 18.1305V23.0595V27.9596L0.833384 28.882L1.66677 29.8332H22.7025H43.7383L44.5717 28.882L45.4051 27.9596V13.9798V1.33514e-05H41.0083C38.5656 1.33514e-05 36.4965 0.0864868 36.4103 0.201784Z" fill="white"/>
<path d="M54.6585 0.461187C53.1929 1.49886 53.1642 1.64298 53.1642 14.9887C53.1642 28.6226 53.1642 28.6514 54.8884 29.545C55.6356 29.9197 58.4231 29.9773 77.0737 29.9197L98.4256 29.8332V26.8066V23.7801L80.4072 23.6936L62.3601 23.636V20.8977V18.1593L79.2577 18.1017L96.1266 18.0152V14.9887V11.9621L79.2577 11.8756L62.3601 11.818V9.07967V6.34135L80.4072 6.28371L98.4256 6.19723L98.5118 3.0842L98.598 -3.8147e-06H76.9587C57.7909 -3.8147e-06 55.2333 0.0576458 54.6585 0.461187Z" fill="white"/>
<path d="M106.156 0.374727C106.07 0.605322 106.07 1.98889 106.098 3.48776L106.185 6.19725L115.438 6.28372L124.72 6.34137L124.778 18.1017L124.864 29.8332L129.404 29.9197L133.916 30.0062V18.1594V6.34137L143.198 6.28372L152.452 6.19725L152.538 3.08422L152.624 1.14441e-05H129.462C110.495 1.14441e-05 106.271 0.0576591 106.156 0.374727Z" fill="white"/>
<path d="M161.332 0.980024L160.355 1.96005V14.6716C160.355 28.6514 160.355 28.6514 162.079 29.545C162.826 29.9197 165.527 29.9773 184.235 29.9197L205.53 29.8332L206.363 28.882L207.197 27.9596V14.9598V1.96005L206.219 0.980024L205.242 -3.8147e-06H183.776H162.309L161.332 0.980024ZM198.001 14.9887V23.636H183.776H169.551V14.9887V6.34135H183.776H198.001V14.9887Z" fill="white"/>
<path d="M214.956 13.6916C214.956 25.3943 215.013 27.5273 215.387 28.2479C216.306 30.035 215.559 29.9773 237.658 29.9773C259.757 29.9773 259.01 30.035 259.93 28.2479C260.303 27.5273 260.361 25.3943 260.361 13.6916V-1.90735e-06H255.763H251.165V11.818V23.636H237.658H224.152V11.818V-1.90735e-06H219.554H214.956V13.6916Z" fill="white"/>
<path d="M268.12 14.9887V30.0062L272.66 29.9197L277.172 29.8332L277.258 21.5318C277.287 16.9776 277.402 13.2592 277.488 13.2592C277.574 13.2592 283.121 17.0064 289.816 21.6183L301.972 29.9773H308.18C313.295 29.9773 314.387 29.9197 314.387 29.5738C314.387 29.3432 310.68 26.6337 306.139 23.5207L297.92 17.8711H304.645C314.358 17.8711 314.1 18.1305 314.1 8.93556C314.1 2.33478 313.927 1.38358 312.576 0.490025C311.887 0.0288353 310.076 1.14441e-05 289.96 1.14441e-05H268.12V14.9887ZM304.904 8.93556V11.5298H291.11H277.316V8.93556V6.34137H291.11H304.904V8.93556Z" fill="white"/>
</svg>
