<svg width="740" height="70" viewBox="0 0 740 70" fill="none" xmlns="http://www.w3.org/2000/svg">
<path d="M85.702 0.470749C85.4314 0.672478 85.2285 13.1124 85.2285 28.0404V55.1393H53.0987H21.0366L20.8336 48.8857L20.6307 42.6994L10.3492 42.4976L0 42.2959V53.7945V65.2258L1.96161 67.3775L3.92322 69.5966H53.4369H102.951L104.912 67.3775L106.874 65.2258V32.6129V5.34058e-05H96.5247C90.7751 5.34058e-05 85.9049 0.201782 85.702 0.470749Z" fill="black" fill-opacity="0.03"/>
<path d="M128.654 1.07588C125.205 3.49664 125.137 3.83285 125.137 34.9664C125.137 66.7723 125.137 66.8395 129.196 68.9241C130.954 69.7982 137.516 69.9327 181.415 69.7982L231.673 69.5965V62.536V55.4755L189.261 55.2737L146.782 55.1393V48.7512V42.3631L186.556 42.2286L226.261 42.0269V34.9664V27.9058L186.556 27.7041L146.782 27.5696V21.1815V14.7935L189.261 14.659L231.673 14.4572L231.876 7.195L232.079 0H181.144C136.027 0 130.007 0.134483 128.654 1.07588Z" fill="black" fill-opacity="0.03"/>
<path d="M249.868 0.874199C249.665 1.41215 249.665 4.63981 249.733 8.13644L249.936 14.4573L271.717 14.659L293.565 14.7935L293.7 42.2286L293.903 69.5965L304.59 69.7983L315.21 70V42.3631V14.7935L337.058 14.659L358.839 14.4573L359.042 7.19504L359.245 4.57764e-05H304.726C260.082 4.57764e-05 250.139 0.134529 249.868 0.874199Z" fill="black" fill-opacity="0.03"/>
<path d="M379.74 2.28625L377.441 4.57252V34.2267C377.441 66.8395 377.441 66.8395 381.499 68.9241C383.258 69.7982 389.616 69.9327 433.651 69.7982L483.773 69.5965L485.735 67.3775L487.697 65.2257V34.8991V4.57252L485.397 2.28625L483.097 0H432.569H382.04L379.74 2.28625ZM466.051 34.9664V55.1393H432.569H399.086V34.9664V14.7935H432.569H466.051V34.9664Z" fill="black" fill-opacity="0.03"/>
<path d="M505.96 31.9404C505.96 59.2411 506.095 64.2171 506.974 65.8982C509.139 70.0672 507.38 69.9327 559.397 69.9327C611.413 69.9327 609.655 70.0672 611.819 65.8982C612.698 64.2171 612.834 59.2411 612.834 31.9404V2.28882e-05H602.011H591.188V27.5696V55.1393H559.397H527.605V27.5696V2.28882e-05H516.783H505.96V31.9404Z" fill="black" fill-opacity="0.03"/>
<path d="M631.097 34.9664V70L641.784 69.7983L652.404 69.5965L652.607 50.2306C652.675 39.6062 652.945 30.9318 653.148 30.9318C653.351 30.9318 666.406 39.6734 682.166 50.4323L710.779 69.9328H725.389C737.43 69.9328 740 69.7983 740 68.9914C740 68.4534 731.274 62.1326 720.587 54.8703L701.241 41.6907H717.069C739.932 41.6907 739.324 42.2959 739.324 20.8454C739.324 5.44672 738.918 3.22771 735.739 1.14317C734.115 0.0672836 729.854 4.57764e-05 682.505 4.57764e-05H631.097V34.9664ZM717.678 20.8454V26.8972H685.21H652.742V20.8454V14.7935H685.21H717.678V20.8454Z" fill="black" fill-opacity="0.03"/>
</svg>
