<svg width="392" height="392" viewBox="0 0 392 392" fill="none" xmlns="http://www.w3.org/2000/svg">
<rect width="392" height="392" fill="#38AB96"/>
<path d="M68.6078 180.396C68.4869 180.487 68.3962 186.096 68.3962 192.827V205.045H54.038H39.7101L39.6194 202.225L39.5288 199.436L34.9342 199.345L30.3093 199.254V204.439V209.593L31.1859 210.563L32.0625 211.564H54.1892H76.3158L77.1924 210.563L78.069 209.593V194.888V180.183H73.4442C70.8748 180.183 68.6985 180.274 68.6078 180.396Z" fill="white"/>
<path d="M87.8023 180.669C86.2607 181.76 86.2305 181.912 86.2305 195.949C86.2305 210.29 86.2305 210.321 88.0441 211.261C88.83 211.655 91.7621 211.715 111.38 211.655L133.839 211.564V208.38V205.197L114.886 205.106L95.9033 205.045V202.165V199.285L113.677 199.224L131.421 199.133V195.949V192.766L113.677 192.675L95.9033 192.614V189.734V186.854L114.886 186.793L133.839 186.702L133.93 183.428L134.02 180.184H111.259C91.0971 180.184 88.4069 180.244 87.8023 180.669Z" fill="white"/>
<path d="M141.97 180.578C141.88 180.82 141.88 182.276 141.91 183.852L142 186.702L151.734 186.793L161.497 186.854L161.558 199.224L161.648 211.564L166.424 211.655L171.17 211.746V199.285V186.854L180.934 186.793L190.667 186.702L190.758 183.428L190.848 180.184H166.485C146.535 180.184 142.091 180.244 141.97 180.578Z" fill="white"/>
<path d="M200.007 181.214L198.98 182.245V195.616C198.98 210.321 198.98 210.321 200.793 211.261C201.579 211.655 204.421 211.715 224.099 211.655L246.497 211.564L247.374 210.563L248.251 209.593V195.919V182.245L247.223 181.214L246.195 180.184H223.615H201.035L200.007 181.214ZM238.578 195.949V205.045H223.615H208.652V195.949V186.854H223.615H238.578V195.949Z" fill="white"/>
<path d="M256.412 194.585C256.412 206.895 256.473 209.138 256.866 209.896C257.833 211.776 257.047 211.715 280.292 211.715C303.537 211.715 302.751 211.776 303.719 209.896C304.111 209.138 304.172 206.895 304.172 194.585V180.183H299.336H294.499V192.614V205.045H280.292H266.085V192.614V180.183H261.249H256.412V194.585Z" fill="white"/>
<path d="M312.333 195.949V211.746L317.109 211.655L321.855 211.564L321.946 202.832C321.976 198.041 322.097 194.13 322.188 194.13C322.278 194.13 328.112 198.072 335.155 202.923L347.942 211.715H354.471C359.851 211.715 361 211.655 361 211.291C361 211.048 357.101 208.198 352.325 204.924L343.679 198.981H350.753C360.97 198.981 360.698 199.254 360.698 189.582C360.698 182.639 360.516 181.639 359.096 180.699C358.37 180.214 356.466 180.184 335.306 180.184H312.333V195.949ZM351.025 189.582V192.311H336.516H322.006V189.582V186.854H336.516H351.025V189.582Z" fill="white"/>
</svg>
