<svg width="9" height="9" viewBox="0 0 9 9" fill="none" xmlns="http://www.w3.org/2000/svg">
<path d="M7.27488 1.56522C7.41352 1.42879 7.60198 1.35141 7.79895 1.35C7.996 1.34858 8.18554 1.42325 8.32626 1.55767C8.46697 1.69209 8.54739 1.87535 8.54991 2.06738C8.55243 2.25941 8.47687 2.44462 8.33971 2.58251L4.37188 7.41782C4.30371 7.48937 4.22146 7.54679 4.13002 7.58666C4.03858 7.62653 3.93985 7.648 3.83971 7.64984C3.73955 7.65169 3.64006 7.63382 3.54715 7.59737C3.45424 7.56088 3.36982 7.50652 3.29894 7.43753L0.66821 4.87411C0.528413 4.73776 0.449904 4.5529 0.449951 4.36012C0.450001 4.16735 0.528602 3.9825 0.668462 3.84622C0.808327 3.70994 0.997997 3.63342 1.19575 3.63346C1.3935 3.6335 1.58314 3.71012 1.72293 3.84646L3.83971 5.82383L7.25512 1.58791C7.26142 1.58011 7.26817 1.5727 7.27537 1.56571L7.27488 1.56522Z" fill="#38AB96"/>
<path fill-rule="evenodd" clip-rule="evenodd" d="M8.32626 1.55767C8.18554 1.42325 7.996 1.34858 7.79895 1.35C7.75561 1.35031 7.71264 1.3543 7.67056 1.36179C7.57921 1.37805 7.49191 1.41079 7.41312 1.45817C7.41141 1.45919 7.4097 1.46022 7.40799 1.46126C7.36006 1.4906 7.31538 1.52539 7.27488 1.56522L7.27537 1.56571C7.26817 1.5727 7.26142 1.58011 7.25512 1.58791L3.83971 5.82383L1.72293 3.84646C1.58314 3.71012 1.3935 3.6335 1.19575 3.63346C0.997997 3.63342 0.808327 3.70994 0.668462 3.84622C0.528602 3.9825 0.450001 4.16735 0.449951 4.36012C0.449904 4.5529 0.528413 4.73776 0.66821 4.87411L3.29894 7.43753C3.36982 7.50652 3.45424 7.56088 3.54715 7.59737C3.64006 7.63382 3.73955 7.65169 3.83971 7.64984C3.93985 7.648 4.03858 7.62653 4.13002 7.58666C4.22146 7.54679 4.30371 7.48937 4.37188 7.41782L8.33971 2.58251C8.47687 2.44462 8.55243 2.25941 8.54991 2.06738C8.54739 1.87535 8.46697 1.69209 8.32626 1.55767ZM4.01776 7.17424L7.98646 2.33791L8.00023 2.32404C8.06103 2.26292 8.10126 2.17273 8.09991 2.0719C8.0986 1.97109 8.05608 1.88251 7.99443 1.82362C7.93426 1.76613 7.86415 1.74329 7.80268 1.74373C7.74715 1.74413 7.68465 1.7636 7.62912 1.8105L7.61674 1.82246L3.88894 6.44582L1.3912 4.11255L1.38797 4.10941C1.32786 4.05078 1.25739 4.02723 1.19564 4.02721C1.13387 4.0272 1.0634 4.05072 1.00328 4.1093C0.941698 4.1693 0.899978 4.25896 0.899951 4.3602C0.899924 4.46137 0.941549 4.55101 1.00303 4.61104L3.63357 7.17428C3.63356 7.17428 3.63358 7.17428 3.63357 7.17428C3.66425 7.20416 3.69805 7.22504 3.73137 7.23814C3.76448 7.2511 3.79791 7.25677 3.83025 7.25618C3.86258 7.2556 3.89614 7.24867 3.92931 7.23422C3.95959 7.22104 3.98999 7.20128 4.01776 7.17424Z" fill="#38AB96"/>
</svg>
