<svg width="9" height="9" viewBox="0 0 9 9" fill="none" xmlns="http://www.w3.org/2000/svg">
<path d="M7.27494 1.56522C7.41358 1.42879 7.60204 1.35141 7.79901 1.35C7.99606 1.34858 8.1856 1.42325 8.32632 1.55767C8.46703 1.69209 8.54745 1.87535 8.54997 2.06738C8.55249 2.25941 8.47693 2.44462 8.33977 2.58251L4.37194 7.41782C4.30377 7.48937 4.22152 7.54679 4.13008 7.58666C4.03865 7.62653 3.93991 7.648 3.83977 7.64984C3.73962 7.65169 3.64013 7.63382 3.54721 7.59737C3.4543 7.56088 3.36988 7.50652 3.299 7.43753L0.668271 4.87411C0.528474 4.73776 0.449965 4.5529 0.450012 4.36012C0.450062 4.16735 0.528663 3.9825 0.668523 3.84622C0.808388 3.70994 0.998058 3.63342 1.19581 3.63346C1.39356 3.6335 1.5832 3.71012 1.72299 3.84646L3.83977 5.82383L7.25518 1.58791C7.26148 1.58011 7.26823 1.5727 7.27543 1.56571L7.27494 1.56522Z" fill="white"/>
<path fill-rule="evenodd" clip-rule="evenodd" d="M8.32632 1.55767C8.1856 1.42325 7.99606 1.34858 7.79901 1.35C7.75567 1.35031 7.7127 1.3543 7.67062 1.36179C7.57927 1.37805 7.49197 1.41079 7.41318 1.45817C7.41147 1.45919 7.40976 1.46022 7.40805 1.46126C7.36012 1.4906 7.31544 1.52539 7.27494 1.56522L7.27543 1.56571C7.26823 1.5727 7.26148 1.58011 7.25518 1.58791L3.83977 5.82383L1.72299 3.84646C1.5832 3.71012 1.39356 3.6335 1.19581 3.63346C0.998058 3.63342 0.808388 3.70994 0.668523 3.84622C0.528663 3.9825 0.450062 4.16735 0.450012 4.36012C0.449965 4.5529 0.528474 4.73776 0.668271 4.87411L3.299 7.43753C3.36988 7.50652 3.4543 7.56088 3.54721 7.59737C3.64013 7.63382 3.73962 7.65169 3.83977 7.64984C3.93991 7.648 4.03865 7.62653 4.13008 7.58666C4.22152 7.54679 4.30377 7.48937 4.37194 7.41782L8.33977 2.58251C8.47693 2.44462 8.55249 2.25941 8.54997 2.06738C8.54745 1.87535 8.46703 1.69209 8.32632 1.55767ZM4.01782 7.17424L7.98652 2.33791L8.00029 2.32404C8.06109 2.26292 8.10132 2.17273 8.09997 2.0719C8.09866 1.97109 8.05614 1.88251 7.99449 1.82362C7.93432 1.76613 7.86421 1.74329 7.80274 1.74373C7.74721 1.74413 7.68471 1.7636 7.62918 1.8105L7.6168 1.82246L3.889 6.44582L1.39126 4.11255L1.38803 4.10941C1.32792 4.05078 1.25745 4.02723 1.1957 4.02721C1.13393 4.0272 1.06346 4.05072 1.00334 4.1093C0.941759 4.1693 0.900039 4.25896 0.900012 4.3602C0.899985 4.46137 0.94161 4.55101 1.00309 4.61104L3.63363 7.17428C3.63362 7.17428 3.63364 7.17428 3.63363 7.17428C3.66431 7.20416 3.69811 7.22504 3.73143 7.23814C3.76455 7.2511 3.79797 7.25677 3.83031 7.25618C3.86265 7.2556 3.8962 7.24867 3.92937 7.23422C3.95965 7.22104 3.99005 7.20128 4.01782 7.17424Z" fill="white"/>
</svg>
