<svg width="58" height="58" viewBox="0 0 58 58" fill="none" xmlns="http://www.w3.org/2000/svg">
<g filter="url(#filter0_d_33_302)">
<rect x="14" y="12" width="30" height="30" rx="4" fill="white" shape-rendering="crispEdges"/>
<rect x="14.5" y="12.5" width="29" height="29" rx="3.5" stroke="white" shape-rendering="crispEdges"/>
<path d="M31.2749 23.5652C31.4136 23.4288 31.602 23.3514 31.799 23.35C31.9961 23.3486 32.1856 23.4233 32.3263 23.5577C32.467 23.6921 32.5474 23.8754 32.55 24.0674C32.5525 24.2594 32.4769 24.4446 32.3398 24.5825L28.3719 29.4178C28.3038 29.4894 28.2215 29.5468 28.1301 29.5867C28.0386 29.6265 27.9399 29.648 27.8398 29.6499C27.7396 29.6517 27.6401 29.6338 27.5472 29.5974C27.4543 29.5609 27.3699 29.5065 27.299 29.4375L24.6683 26.8741C24.5285 26.7378 24.45 26.5529 24.45 26.3601C24.4501 26.1674 24.5287 25.9825 24.6685 25.8462C24.8084 25.71 24.9981 25.6334 25.1958 25.6335C25.3936 25.6335 25.5832 25.7101 25.723 25.8465L27.8398 27.8238L31.2552 23.5879C31.2615 23.5801 31.2682 23.5727 31.2754 23.5657L31.2749 23.5652Z" fill="#38AB96"/>
<path fill-rule="evenodd" clip-rule="evenodd" d="M32.3263 23.5577C32.1856 23.4233 31.9961 23.3486 31.799 23.35C31.7557 23.3503 31.7127 23.3543 31.6706 23.3618C31.5793 23.3781 31.492 23.4108 31.4132 23.4582C31.4115 23.4592 31.4098 23.4602 31.408 23.4613C31.3601 23.4906 31.3154 23.5254 31.2749 23.5652L31.2754 23.5657C31.2682 23.5727 31.2615 23.5801 31.2552 23.5879L27.8398 27.8238L25.723 25.8465C25.5832 25.7101 25.3936 25.6335 25.1958 25.6335C24.9981 25.6334 24.8084 25.71 24.6685 25.8462C24.5287 25.9825 24.4501 26.1674 24.45 26.3601C24.45 26.5529 24.5285 26.7378 24.6683 26.8741L27.299 29.4375C27.3699 29.5065 27.4543 29.5609 27.5472 29.5974C27.6401 29.6338 27.7396 29.6517 27.8398 29.6499C27.9399 29.648 28.0386 29.6265 28.1301 29.5867C28.2215 29.5468 28.3038 29.4894 28.3719 29.4178L32.3398 24.5825C32.4769 24.4446 32.5525 24.2594 32.55 24.0674C32.5474 23.8754 32.467 23.6921 32.3263 23.5577ZM28.0178 29.1743L31.9865 24.3379L32.0003 24.3241C32.0611 24.2629 32.1013 24.1727 32.1 24.0719C32.0987 23.9711 32.0561 23.8825 31.9945 23.8236C31.9343 23.7661 31.8642 23.7433 31.8027 23.7437C31.7472 23.7441 31.6847 23.7636 31.6292 23.8105L31.6168 23.8225L27.889 28.4458L25.3913 26.1126L25.388 26.1094C25.3279 26.0508 25.2575 26.0272 25.1957 26.0272C25.1339 26.0272 25.0635 26.0507 25.0033 26.1093C24.9418 26.1693 24.9 26.259 24.9 26.3602C24.9 26.4614 24.9416 26.551 25.0031 26.6111L27.6336 29.1743C27.6336 29.1743 27.6336 29.1743 27.6336 29.1743C27.6643 29.2042 27.6981 29.2251 27.7314 29.2382C27.7645 29.2511 27.798 29.2568 27.8303 29.2562C27.8626 29.2556 27.8962 29.2487 27.9294 29.2342C27.9597 29.2211 27.99 29.2013 28.0178 29.1743Z" fill="#38AB96"/>
</g>
<defs>
<filter id="filter0_d_33_302" x="0" y="0" width="58" height="58" filterUnits="userSpaceOnUse" color-interpolation-filters="sRGB">
<feFlood flood-opacity="0" result="BackgroundImageFix"/>
<feColorMatrix in="SourceAlpha" type="matrix" values="0 0 0 0 0 0 0 0 0 0 0 0 0 0 0 0 0 0 127 0" result="hardAlpha"/>
<feOffset dy="2"/>
<feGaussianBlur stdDeviation="7"/>
<feComposite in2="hardAlpha" operator="out"/>
<feColorMatrix type="matrix" values="0 0 0 0 0 0 0 0 0 0 0 0 0 0 0 0 0 0 0.1 0"/>
<feBlend mode="normal" in2="BackgroundImageFix" result="effect1_dropShadow_33_302"/>
<feBlend mode="normal" in="SourceGraphic" in2="effect1_dropShadow_33_302" result="shape"/>
</filter>
</defs>
</svg>
